<svg width="138" height="45" viewBox="0 0 138 45" fill="none" xmlns="http://www.w3.org/2000/svg">
<g clip-path="url(#clip0_280_32)">
<path d="M124.914 30.8978C124.574 30.8978 124.259 30.8736 123.968 30.8251C123.693 30.7927 123.426 30.7361 123.167 30.6553V27.7445C123.669 27.9062 124.178 27.987 124.696 27.987C125.1 27.987 125.464 27.9304 125.787 27.8172C126.111 27.6879 126.402 27.4938 126.66 27.2351C126.935 26.9601 127.178 26.6125 127.388 26.192L128.092 24.7609L128.043 26.7984L120.523 13.627H124.332L129.159 22.4807H129.28L133.404 13.627H137.018L130.978 26.1435C130.412 27.3078 129.846 28.2377 129.28 28.933C128.714 29.6122 128.083 30.1135 127.388 30.437C126.693 30.7442 125.868 30.8978 124.914 30.8978Z" fill="black"/>
<path d="M103.309 30.6068L110.198 13.627H114.612L121.501 30.6068H117.766L112.429 17.0229H112.308L106.947 30.6068H103.309ZM106.51 27.4534L107.626 24.5425H117.086L118.202 27.4534H106.51Z" fill="black"/>
<path d="M91.9121 30.6068V13.627H104.768V16.6591H95.4294V30.6068H91.9121Z" fill="black"/>
<path d="M74.3359 30.6068V13.627H87.3134V16.5378H77.8532V27.6959H81.9041C82.9714 27.6959 83.7719 27.4938 84.3055 27.0895C84.8553 26.6852 85.1302 26.0788 85.1302 25.2703C85.1302 24.4617 84.8634 23.8553 84.3298 23.451C83.7961 23.0467 82.9876 22.8446 81.9041 22.8446H76.1552V19.9337H82.1224C83.6101 19.9337 84.8553 20.1359 85.8579 20.5402C86.8606 20.9444 87.6125 21.5428 88.1138 22.3352C88.6313 23.1276 88.8901 24.1059 88.8901 25.2703C88.8901 27.0167 88.316 28.3428 87.1678 29.2484C86.0197 30.154 84.3379 30.6068 82.1224 30.6068H74.3359Z" fill="black"/>
<path d="M60.5292 30.8978C60.1896 30.8978 59.8742 30.8736 59.5831 30.8251C59.3082 30.7927 59.0414 30.7361 58.7827 30.6553V27.7445C59.284 27.9062 59.7934 27.987 60.3109 27.987C60.7151 27.987 61.079 27.9304 61.4024 27.8172C61.7258 27.6879 62.0169 27.4938 62.2757 27.2351C62.5506 26.9601 62.7931 26.6125 63.0034 26.192L63.7068 24.7609L63.6583 26.7984L56.1387 13.627H59.947L64.7741 22.4807H64.8954L69.0191 13.627H72.6333L66.5934 26.1435C66.0274 27.3078 65.4614 28.2377 64.8954 28.933C64.3294 29.6122 63.6987 30.1135 63.0034 30.437C62.308 30.7442 61.4833 30.8978 60.5292 30.8978Z" fill="black"/>
<path d="M50.619 30.6068L42.9781 22.0198L50.3522 13.627H54.4759L46.3498 22.7961L46.5196 21.0738L55.0338 30.6068H50.619ZM39.752 30.6068V13.627H43.2692V30.6068H39.752Z" fill="black"/>
<path d="M11.4599 32.2705L11.4144 32.225C9.21616 28.7836 9.47579 25.1545 12.1668 21.7112C13.2925 20.2747 18.3902 14.9439 21.8165 11.3906C22.5025 12.8934 22.8455 14.5137 22.8455 16.1359C22.8455 18.8705 21.8695 21.6069 19.9176 23.7787L19.4401 24.2676L11.4599 32.2724V32.2705Z" fill="url(#paint0_radial_280_32)"/>
<path d="M3.50312 23.8248C3.46711 23.6865 3.4368 23.5444 3.41406 23.4004C3.4387 23.5463 3.46901 23.6865 3.50312 23.8248Z" fill="url(#paint1_radial_280_32)"/>
<path d="M22.8453 33.5215V40.302C19.5479 40.302 13.9537 41.6892 11.5867 44.8805C11.5318 44.818 11.4787 44.7555 11.4219 44.6948V36.8947C11.4446 36.9099 11.4655 36.9269 11.4882 36.9421C14.7837 34.5846 18.7766 33.5878 22.8435 33.5215H22.8453Z" fill="url(#paint2_radial_280_32)"/>
<path d="M11.4216 36.8947V44.6948C8.35725 41.278 4.29801 40.302 0 40.302V33.5215C4.0365 33.5878 8.15258 34.5713 11.4216 36.8947Z" fill="url(#paint3_radial_280_32)"/>
<path d="M15.2961 3.87162C13.1585 6.01874 8.10057 11.0975 5.80564 13.3659C3.47092 15.6741 1.87148 19.271 1.87338 22.3675C-1.02229 17.9425 -0.529571 11.9503 3.35342 8.05973L11.4359 0L15.2961 3.87162Z" fill="url(#paint4_radial_280_32)"/>
<path d="M11.0033 20.8004C8.82022 23.59 8.04135 26.5766 8.67809 29.495L3.78123 24.6133C3.78123 24.6133 3.77744 24.6095 3.77744 24.6057C3.76039 24.5678 3.74333 24.5261 3.72438 24.4863C3.70543 24.4446 3.68837 24.4029 3.67132 24.3594C3.65995 24.3347 3.65237 24.3082 3.641 24.2817C3.61826 24.221 3.59552 24.1585 3.57846 24.0941C3.55003 24.005 3.5235 23.914 3.50076 23.8231C3.46665 23.6847 3.43633 23.5426 3.41169 23.3986C3.40222 23.3512 3.39464 23.3038 3.38895 23.2526C3.37758 23.1882 3.3719 23.1219 3.36432 23.0556C3.35674 22.9968 3.35295 22.9362 3.34916 22.8774C3.34916 22.8547 3.34537 22.83 3.34347 22.8073C3.33968 22.758 3.33589 22.7069 3.33399 22.6557C3.33399 22.614 3.3302 22.5704 3.32831 22.5268C3.26198 19.8301 4.74582 16.491 6.84366 14.4178C7.02748 14.2359 7.22836 14.0369 7.44629 13.8228L7.61116 13.6579C7.77983 13.4911 7.95417 13.3168 8.1361 13.1368L8.31992 12.953C8.50753 12.7672 8.69893 12.5758 8.89791 12.3768C8.96424 12.3105 9.03057 12.2461 9.0969 12.1779C9.16701 12.1077 9.23903 12.0357 9.31293 11.9637C9.37547 11.8993 9.4399 11.8367 9.50623 11.7704C10.3022 10.9745 11.1549 10.1217 11.9926 9.28219C12.0494 9.22534 12.1044 9.1685 12.1631 9.11164C12.2749 8.99794 12.3867 8.88423 12.5004 8.77242L12.6691 8.60377C12.726 8.54691 12.779 8.49195 12.8359 8.4351C12.8927 8.37825 12.9458 8.32329 13.0026 8.26834C13.0595 8.21148 13.1125 8.15653 13.1675 8.10157C13.2357 8.03335 13.3039 7.96512 13.3722 7.8969C13.4669 7.80214 13.5617 7.70739 13.6545 7.61264C13.7076 7.55958 13.7607 7.50842 13.8137 7.45346C14.026 7.24121 14.2306 7.03465 14.4296 6.83566C14.4789 6.7845 14.5301 6.73523 14.5793 6.68596C15.2672 5.99426 15.8737 5.38404 16.3436 4.91406L19.4894 8.06746C19.8287 8.40857 20.1641 8.75347 20.4578 9.13249C20.6815 9.42054 20.8899 9.71617 21.0813 10.0213C17.6418 13.5821 12.22 19.2465 11.0071 20.7966L11.0033 20.8004Z" fill="url(#paint5_radial_280_32)"/>
<path d="M22.8455 16.134C22.8455 18.8686 21.8695 21.6051 19.9176 23.7768L19.4401 24.2657L11.4599 32.2705L11.4144 32.225C9.21616 28.7836 9.47579 25.1545 12.1668 21.7112C13.2925 20.2747 18.3902 14.9439 21.8165 11.3906C22.5025 12.8934 22.8455 14.5137 22.8455 16.1359V16.134Z" fill="url(#paint6_radial_280_32)"/>
</g>
<defs>
<radialGradient id="paint0_radial_280_32" cx="0" cy="0" r="1" gradientUnits="userSpaceOnUse" gradientTransform="translate(29.5919 14.8965) scale(37.4541 37.4541)">
<stop stop-color="#EBFF00"/>
<stop offset="1" stop-color="#008900"/>
</radialGradient>
<radialGradient id="paint1_radial_280_32" cx="0" cy="0" r="1" gradientUnits="userSpaceOnUse" gradientTransform="translate(3.46712 23.3966) scale(0.468005 0.46803)">
<stop stop-color="#EBFF00"/>
<stop offset="1" stop-color="#008900"/>
</radialGradient>
<radialGradient id="paint2_radial_280_32" cx="0" cy="0" r="1" gradientUnits="userSpaceOnUse" gradientTransform="translate(-1.94214 23.9817) scale(47.9395 47.9395)">
<stop stop-color="#EBFF00"/>
<stop offset="1" stop-color="#008900"/>
</radialGradient>
<radialGradient id="paint3_radial_280_32" cx="0" cy="0" r="1" gradientUnits="userSpaceOnUse" gradientTransform="translate(-5.38578 35.1475) scale(23.3283 23.3283)">
<stop stop-color="#EBFF00"/>
<stop offset="1" stop-color="#008900"/>
</radialGradient>
<radialGradient id="paint4_radial_280_32" cx="0" cy="0" r="1" gradientUnits="userSpaceOnUse" gradientTransform="translate(12.0916 -3.14961) scale(35.7941 35.7941)">
<stop stop-color="#EBFF00"/>
<stop offset="1" stop-color="#008900"/>
</radialGradient>
<radialGradient id="paint5_radial_280_32" cx="0" cy="0" r="1" gradientUnits="userSpaceOnUse" gradientTransform="translate(19.6069 -4.40209) scale(42.9328 42.9328)">
<stop stop-color="#EBFF00"/>
<stop offset="1" stop-color="#008900"/>
</radialGradient>
<radialGradient id="paint6_radial_280_32" cx="0" cy="0" r="1" gradientUnits="userSpaceOnUse" gradientTransform="translate(36.4199 19.2855) scale(34.8446 34.8446)">
<stop stop-color="#EBFF00"/>
<stop offset="1" stop-color="#008900"/>
</radialGradient>
<clipPath id="clip0_280_32">
<rect width="137.018" height="44.8805" fill="white"/>
</clipPath>
</defs>
</svg>
