<svg width="139" height="45" viewBox="0 0 139 45" fill="none" xmlns="http://www.w3.org/2000/svg">
<g clip-path="url(#clip0_280_77)">
<path d="M0 0V44.5" stroke="black"/>
<path d="M108.079 34.8653H107.248L108.852 32.7302V32.6956L107.248 30.5605H108.079L109.672 32.7187L108.079 34.8653ZM110.087 34.8653H109.256L110.86 32.7302V32.6956L109.256 30.5605H110.087L111.68 32.7187L110.087 34.8653Z" fill="black"/>
<path d="M102.633 31.3573L107.03 35.5004H105.876L101.606 31.5073V35.5004H100.74V27.4219H101.606V31.3111L105.657 27.4219H106.718L102.633 31.3573Z" fill="black"/>
<path d="M95.1998 35.616C94.3996 35.616 93.6956 35.4391 93.0878 35.0851C92.48 34.7312 92.0107 34.2388 91.6799 33.6079C91.349 32.977 91.1836 32.2615 91.1836 31.4613C91.1836 30.6612 91.349 29.9456 91.6799 29.3147C92.0107 28.6838 92.48 28.1914 93.0878 27.8375C93.6956 27.4836 94.3996 27.3066 95.1998 27.3066C95.8769 27.3066 96.4808 27.4336 97.0117 27.6875C97.5426 27.9414 97.9696 28.2876 98.2927 28.7262C98.6159 29.1647 98.8198 29.6533 98.9044 30.1918H98.0158C97.9388 29.8072 97.7772 29.4571 97.531 29.1416C97.2848 28.8185 96.9617 28.5646 96.5616 28.3799C96.1615 28.1953 95.7076 28.103 95.1998 28.103C94.5766 28.103 94.0303 28.2491 93.561 28.5415C93.0917 28.8262 92.7262 29.2224 92.4646 29.7302C92.2107 30.238 92.0838 30.815 92.0838 31.4613C92.0838 32.1076 92.2107 32.6847 92.4646 33.1925C92.7262 33.7003 93.0917 34.1003 93.561 34.3927C94.0303 34.6774 94.5766 34.8197 95.1998 34.8197C95.9692 34.8197 96.6001 34.6274 97.0925 34.2427C97.5849 33.858 97.9004 33.354 98.0388 32.7308H98.9275C98.8198 33.2771 98.6005 33.7695 98.2697 34.208C97.9465 34.6466 97.5195 34.9928 96.9886 35.2467C96.4654 35.4929 95.8692 35.616 95.1998 35.616Z" fill="black"/>
<path d="M83.5314 35.5004H82.5273V27.4219H83.3929V34.3348H83.4275L88.2978 27.4219H89.3018V35.5004H88.4362V28.5875H88.3901L83.5314 35.5004Z" fill="black"/>
<path d="M76.6057 35.616C75.8055 35.616 75.0977 35.4391 74.4822 35.0851C73.8744 34.7312 73.4012 34.2388 73.0627 33.6079C72.7318 32.977 72.5664 32.2615 72.5664 31.4613C72.5664 30.6612 72.7318 29.9456 73.0627 29.3147C73.4012 28.6838 73.8744 28.1914 74.4822 27.8375C75.0977 27.4836 75.8055 27.3066 76.6057 27.3066C77.4059 27.3066 78.1098 27.4836 78.7177 27.8375C79.3332 28.1914 79.8063 28.6838 80.1372 29.3147C80.4757 29.9456 80.645 30.6612 80.645 31.4613C80.645 32.2615 80.4757 32.977 80.1372 33.6079C79.8063 34.2388 79.3332 34.7312 78.7177 35.0851C78.1098 35.4391 77.4059 35.616 76.6057 35.616ZM76.6057 34.8197C77.2289 34.8197 77.779 34.6774 78.256 34.3927C78.733 34.1003 79.0985 33.7003 79.3524 33.1925C79.614 32.6847 79.7448 32.1076 79.7448 31.4613C79.7448 30.815 79.614 30.238 79.3524 29.7302C79.0985 29.2224 78.733 28.8262 78.256 28.5415C77.779 28.2491 77.2289 28.103 76.6057 28.103C75.9825 28.103 75.4324 28.2491 74.9554 28.5415C74.4783 28.8262 74.109 29.2224 73.8474 29.7302C73.5935 30.238 73.4666 30.815 73.4666 31.4613C73.4666 32.1076 73.5935 32.6847 73.8474 33.1925C74.109 33.7003 74.4783 34.1003 74.9554 34.3927C75.4324 34.6774 75.9825 34.8197 76.6057 34.8197Z" fill="black"/>
<path d="M64.9984 35.5004H64.1328V27.4219H70.6995V35.5004H69.834V28.2182H64.9984V35.5004Z" fill="black"/>
<path d="M60.5915 34.8653H59.7606L58.168 32.7187L59.7606 30.5605H60.5915L58.9874 32.6956V32.7302L60.5915 34.8653ZM62.5996 34.8653H61.7687L60.1761 32.7187L61.7687 30.5605H62.5996L60.9955 32.6956V32.7302L62.5996 34.8653Z" fill="black"/>
<path d="M51.5107 30.5956C52.5186 30.5956 53.2803 30.8033 53.7958 31.2188C54.319 31.6343 54.5806 32.2459 54.5806 33.0538C54.5806 33.854 54.319 34.4618 53.7958 34.8772C53.2803 35.2927 52.5186 35.5004 51.5107 35.5004H48.1523V27.4219H53.7958V28.2182H49.0179V30.5956H51.5107ZM51.5223 34.7041C52.961 34.7041 53.6804 34.154 53.6804 33.0538C53.6804 31.9459 52.961 31.3919 51.5223 31.3919H49.0179V34.7041H51.5223Z" fill="black"/>
<path d="M46.1225 27.4219H47.0458L43.9644 33.6424C43.6104 34.3656 43.2642 34.8772 42.9257 35.1773C42.5871 35.4697 42.1563 35.6159 41.6331 35.6159C41.3946 35.6159 41.183 35.5774 40.9984 35.5004V34.7041C41.1753 34.7811 41.3869 34.8195 41.6331 34.8195C41.9332 34.8195 42.1909 34.7349 42.4063 34.5656C42.6218 34.3887 42.8295 34.0963 43.0295 33.6885L43.2027 33.3423L39.8789 27.4219H40.8253L43.6181 32.4768H43.6528L46.1225 27.4219Z" fill="black"/>
<path d="M31.7106 35.6159C31.4951 35.6159 31.3182 35.5851 31.1797 35.5235V34.7272C31.2951 34.7657 31.422 34.7849 31.5605 34.7849C31.9068 34.7849 32.1568 34.6849 32.3107 34.4849C32.4723 34.2848 32.5684 33.9155 32.5992 33.3769L33.0031 27.4219H38.6004V35.5004H37.7349V28.2182H33.7995L33.4532 33.4231C33.3994 34.2156 33.234 34.7811 32.957 35.1196C32.68 35.4504 32.2645 35.6159 31.7106 35.6159Z" fill="black"/>
<path d="M26.5353 31.3573L30.9323 35.5004H29.7782L25.5081 31.5073V35.5004H24.6426V27.4219H25.5081V31.3111L29.559 27.4219H30.6207L26.5353 31.3573Z" fill="black"/>
<path d="M133.233 19.5004H132.229V11.4218H133.094V18.3347H133.129L137.999 11.4218H139.003V19.5004H138.137V12.5874H138.091L133.233 19.5004ZM135.622 10.6255C135.075 10.6255 134.644 10.4947 134.329 10.2331C134.013 9.96381 133.856 9.59835 133.856 9.13672H134.537C134.537 9.406 134.633 9.62143 134.825 9.783C135.018 9.94458 135.283 10.0254 135.622 10.0254C135.952 10.0254 136.214 9.94458 136.406 9.783C136.599 9.62143 136.695 9.406 136.695 9.13672H137.376C137.376 9.59835 137.218 9.96381 136.903 10.2331C136.595 10.4947 136.168 10.6255 135.622 10.6255Z" fill="black"/>
<path d="M124.172 19.5004H123.168V11.4219H124.034V18.3348H124.068L128.938 11.4219H129.942V19.5004H129.077V12.5875H129.031L124.172 19.5004Z" fill="black"/>
<path d="M117.576 15.3573L121.973 19.5004H120.819L116.549 15.5073V19.5004H115.684V11.4219H116.549V15.3111L120.6 11.4219H121.662L117.576 15.3573Z" fill="black"/>
<path d="M110.145 19.616C109.345 19.616 108.641 19.4391 108.033 19.0852C107.425 18.7312 106.956 18.2388 106.625 17.6079C106.294 16.977 106.129 16.2615 106.129 15.4613C106.129 14.6612 106.294 13.9456 106.625 13.3147C106.956 12.6838 107.425 12.1914 108.033 11.8375C108.641 11.4836 109.345 11.3066 110.145 11.3066C110.822 11.3066 111.426 11.4336 111.957 11.6875C112.488 11.9414 112.915 12.2876 113.238 12.7262C113.561 13.1647 113.765 13.6533 113.85 14.1918H112.961C112.884 13.8072 112.723 13.4571 112.476 13.1416C112.23 12.8185 111.907 12.5646 111.507 12.3799C111.107 12.1953 110.653 12.103 110.145 12.103C109.522 12.103 108.976 12.2491 108.506 12.5415C108.037 12.8262 107.672 13.2224 107.41 13.7302C107.156 14.238 107.029 14.815 107.029 15.4613C107.029 16.1076 107.156 16.6847 107.41 17.1925C107.672 17.7003 108.037 18.1003 108.506 18.3927C108.976 18.6774 109.522 18.8197 110.145 18.8197C110.914 18.8197 111.545 18.6274 112.038 18.2427C112.53 17.858 112.846 17.354 112.984 16.7308H113.873C113.765 17.2771 113.546 17.7695 113.215 18.208C112.892 18.6466 112.465 18.9928 111.934 19.2467C111.411 19.4929 110.814 19.616 110.145 19.616Z" fill="black"/>
<path d="M104.925 11.4219V12.2182H99.8929V14.988H104.29V15.7381H99.8929V18.7041H104.925V19.5004H99.0273V11.4219H104.925Z" fill="black"/>
<path d="M95.8778 11.4219H96.7434V19.5004H95.8778V16.2806C95.5778 16.4267 95.2316 16.5422 94.8392 16.6268C94.4468 16.7037 94.039 16.7422 93.6158 16.7422C92.5695 16.7422 91.7847 16.4921 91.2615 15.992C90.746 15.4842 90.4883 14.711 90.4883 13.6723V11.4219H91.3538V13.6954C91.3538 14.4725 91.5462 15.0418 91.9309 15.4035C92.3233 15.7651 92.9195 15.9459 93.7197 15.9459C94.5353 15.9459 95.2546 15.7728 95.8778 15.4265V11.4219Z" fill="black"/>
<path d="M82.7423 19.5004H81.7383V11.4219H82.6038V18.3348H82.6385L87.5087 11.4219H88.5127V19.5004H87.6472V12.5875H87.601L82.7423 19.5004Z" fill="black"/>
<path d="M77.3445 19.5004H76.479V12.2182H73.4668V11.4219H80.3567V12.2182H77.3445V19.5004Z" fill="black"/>
<path d="M68.8967 19.616C68.0965 19.616 67.3887 19.4391 66.7732 19.0852C66.1654 18.7312 65.6922 18.2388 65.3537 17.6079C65.0228 16.977 64.8574 16.2615 64.8574 15.4613C64.8574 14.6612 65.0228 13.9456 65.3537 13.3147C65.6922 12.6838 66.1654 12.1914 66.7732 11.8375C67.3887 11.4836 68.0965 11.3066 68.8967 11.3066C69.6969 11.3066 70.4009 11.4836 71.0087 11.8375C71.6242 12.1914 72.0974 12.6838 72.4282 13.3147C72.7667 13.9456 72.936 14.6612 72.936 15.4613C72.936 16.2615 72.7667 16.977 72.4282 17.6079C72.0974 18.2388 71.6242 18.7312 71.0087 19.0852C70.4009 19.4391 69.6969 19.616 68.8967 19.616ZM68.8967 18.8197C69.5199 18.8197 70.07 18.6774 70.547 18.3927C71.0241 18.1003 71.3895 17.7003 71.6434 17.1925C71.905 16.6847 72.0358 16.1076 72.0358 15.4613C72.0358 14.815 71.905 14.238 71.6434 13.7302C71.3895 13.2224 71.0241 12.8262 70.547 12.5415C70.07 12.2491 69.5199 12.103 68.8967 12.103C68.2735 12.103 67.7234 12.2491 67.2464 12.5415C66.7693 12.8262 66.4 13.2224 66.1385 13.7302C65.8846 14.238 65.7576 14.815 65.7576 15.4613C65.7576 16.1076 65.8846 16.6847 66.1385 17.1925C66.4 17.7003 66.7693 18.1003 67.2464 18.3927C67.7234 18.6774 68.2735 18.8197 68.8967 18.8197Z" fill="black"/>
<path d="M57.2033 19.5004H56.1992V11.4219H57.0648V18.3348H57.0994L61.9696 11.4219H62.9737V19.5004H62.1081V12.5875H62.062L57.2033 19.5004Z" fill="black"/>
<path d="M51.2444 11.4219C52.2523 11.4219 53.0294 11.6604 53.5756 12.1374C54.1219 12.6144 54.395 13.2953 54.395 14.1801C54.395 15.0649 54.1219 15.7458 53.5756 16.2229C53.0371 16.6922 52.26 16.9268 51.2444 16.9268H49.0863V19.5004H48.2207V11.4219H51.2444ZM51.2444 16.1421C51.9753 16.1421 52.5331 15.9728 52.9178 15.6343C53.3025 15.2957 53.4949 14.811 53.4949 14.1801C53.4949 13.5492 53.3025 13.0645 52.9178 12.726C52.5331 12.3875 51.9753 12.2182 51.2444 12.2182H49.0863V16.1421H51.2444Z" fill="black"/>
<path d="M43.8269 19.5004H42.9614V12.2182H39.9492V11.4219H46.8391V12.2182H43.8269V19.5004Z" fill="black"/>
<path d="M40.3795 19.5004H39.4563L38.6946 17.6308H34.2398L33.4666 19.5004H32.5664L35.9132 11.4219H37.0442L40.3795 19.5004ZM36.4557 12.2528L34.5514 16.8807H38.383L36.4903 12.2528H36.4557Z" fill="black"/>
<path d="M25.5081 19.5004H24.6426V11.4219H31.2093V19.5004H30.3437V12.2182H25.5081V19.5004Z" fill="black"/>
</g>
<defs>
<clipPath id="clip0_280_77">
<rect width="139.003" height="44.5" fill="white"/>
</clipPath>
</defs>
</svg>
