<svg width="58" height="58" viewBox="0 0 58 58" fill="none" xmlns="http://www.w3.org/2000/svg">
<path d="M29 3.625C16.9875 3.625 7.25 13.3625 7.25 25.375C7.25 31.3791 9.68274 36.8155 13.6173 40.7512C17.553 44.689 26.825 50.3875 27.3688 56.3688C27.4503 57.2656 28.0995 58 29 58C29.9005 58 30.5497 57.2656 30.6312 56.3688C31.175 50.3875 40.447 44.689 44.3827 40.7512C48.3173 36.8155 50.75 31.3791 50.75 25.375C50.75 13.3625 41.0125 3.625 29 3.625Z" fill="#FF4433"/>
<path d="M28.9992 32.9887C33.2035 32.9887 36.6116 29.5804 36.6116 25.3762C36.6116 21.1719 33.2035 17.7637 28.9992 17.7637C24.795 17.7637 21.3867 21.1719 21.3867 25.3762C21.3867 29.5804 24.795 32.9887 28.9992 32.9887Z" fill="white"/>
</svg>
